<svg width="76" height="86" viewBox="0 0 76 86" fill="none" xmlns="http://www.w3.org/2000/svg">
<path d="M75.1875 60.3906C75.1875 61.7188 74.5234 62.8809 73.6934 63.5449C72.8633 66.0352 72.8633 73.3398 73.6934 75.9961C74.5234 76.6602 75.1875 77.8223 75.1875 78.9844V81.6406C75.1875 83.9648 73.3613 85.625 71.2031 85.625H16.75C7.95117 85.625 0.8125 78.4863 0.8125 69.6875V16.5625C0.8125 7.76367 7.95117 0.625 16.75 0.625H71.2031C73.3613 0.625 75.1875 2.45117 75.1875 4.60938V60.3906ZM22.0625 22.8711V26.1914C22.0625 26.8555 22.3945 27.1875 23.0586 27.1875H58.2539C58.752 27.1875 59.25 26.8555 59.25 26.1914V22.8711C59.25 22.373 58.752 21.875 58.2539 21.875H23.0586C22.3945 21.875 22.0625 22.373 22.0625 22.8711ZM22.0625 33.4961V36.8164C22.0625 37.4805 22.3945 37.8125 23.0586 37.8125H58.2539C58.752 37.8125 59.25 37.4805 59.25 36.8164V33.4961C59.25 32.998 58.752 32.5 58.2539 32.5H23.0586C22.3945 32.5 22.0625 32.998 22.0625 33.4961ZM64.0645 75C63.7324 72.1777 63.7324 67.3633 64.0645 64.375H16.75C13.7617 64.375 11.4375 66.8652 11.4375 69.6875C11.4375 72.6758 13.7617 75 16.75 75H64.0645Z" fill="white"/>
</svg>
