<svg width="100" height="89" viewBox="0 0 100 89" fill="none" xmlns="http://www.w3.org/2000/svg">
<path d="M95.3125 43.5234C98.0469 44.5 100 47.0391 100 49.9688V71.4531C100 74.1875 98.4375 76.7266 96.0938 77.8984L76.5625 87.6641C74.6094 88.6406 72.2656 88.6406 70.1172 87.6641L50 77.5078L29.6875 87.6641C27.7344 88.6406 25.3906 88.6406 23.2422 87.6641L3.71094 77.8984C1.36719 76.7266 0 74.1875 0 71.4531V49.9688C0 47.0391 1.75781 44.5 4.49219 43.5234L23.2422 36.2969V15.2031C23.2422 12.2734 25.1953 9.73438 27.9297 8.5625L47.4609 1.33594C49.0234 0.75 50.7812 0.75 52.3438 1.33594L71.875 8.5625C74.6094 9.73438 76.5625 12.2734 76.5625 15.2031V36.2969L95.3125 43.5234ZM69.9219 36.4922V22.2344L53.3203 29.4609V42.7422L69.9219 36.4922ZM30.0781 15.0078L50 23.2109L69.9219 15.0078L50 7.39062L30.0781 15.0078ZM46.4844 71.8438V57L29.8828 64.6172V80.0469L46.4844 71.8438ZM46.4844 49.9688V49.7734L26.5625 42.3516L6.64062 49.7734V49.9688L26.5625 57.9766L46.4844 49.9688ZM93.3594 71.8438V57L76.7578 64.6172V80.0469L93.3594 71.8438ZM93.3594 49.9688V49.7734L73.4375 42.3516L53.5156 49.7734V49.9688L73.4375 57.9766L93.3594 49.9688Z" fill="white"/>
</svg>
