<svg width="100" height="99" viewBox="0 0 100 99" fill="none" xmlns="http://www.w3.org/2000/svg">
<path d="M46.6792 0.867188C48.8276 0.0859375 51.1714 0.0859375 53.1245 0.867188L93.7495 16.1016C97.4604 17.4688 99.8042 20.9844 99.8042 24.8906V68.8359C99.8042 72.3516 97.8511 75.6719 94.7261 77.2344L54.1011 97.5469C51.3667 98.9141 48.437 98.9141 45.7026 97.5469L5.07764 77.2344C1.95264 75.6719 -0.000488281 72.3516 -0.000488281 68.8359V24.8906C-0.000488281 20.9844 2.34326 17.4688 6.0542 16.1016L46.6792 0.867188ZM49.9995 12.9766L12.4995 27.0391V27.2344L49.9995 42.4688L87.4995 27.2344V27.0391L49.9995 12.9766ZM56.2495 82.5078L87.4995 66.8828V40.7109L56.2495 53.4062V82.5078Z" fill="white"/>
</svg>
