<svg width="31" height="25" viewBox="0 0 31 25" fill="none" xmlns="http://www.w3.org/2000/svg">
<path d="M10.85 12.5C12.4943 12.5 14.0713 11.8415 15.2341 10.6694C16.3968 9.49732 17.05 7.9076 17.05 6.25C17.05 4.5924 16.3968 3.00269 15.2341 1.83058C14.0713 0.65848 12.4943 0 10.85 0C9.20566 0 7.62866 0.65848 6.46594 1.83058C5.30321 3.00269 4.65 4.5924 4.65 6.25C4.65 7.9076 5.30321 9.49732 6.46594 10.6694C7.62866 11.8415 9.20566 12.5 10.85 12.5ZM8.63641 14.8438C3.86531 14.8438 0 18.7402 0 23.5498C0 24.3506 0.644219 25 1.43859 25H15.6356C15.4855 24.5703 15.4564 24.1016 15.5678 23.6426L16.2944 20.708C16.43 20.1562 16.7109 19.6582 17.1081 19.2578L19.0602 17.29C17.5053 15.7764 15.3934 14.8438 13.0588 14.8438H8.63156H8.63641ZM29.7309 11.5088C28.9753 10.7471 27.7498 10.7471 26.9894 11.5088L25.5653 12.9443L29.0044 16.4111L30.4284 14.9756C31.1841 14.2139 31.1841 12.9785 30.4284 12.2119L29.7309 11.5088ZM18.2077 20.3613C18.0091 20.5615 17.8686 20.8105 17.8008 21.0889L17.0742 24.0234C17.0064 24.292 17.0839 24.5703 17.2777 24.7656C17.4714 24.9609 17.7475 25.0391 18.0139 24.9707L20.925 24.2383C21.1963 24.1699 21.4481 24.0283 21.6467 23.8281L27.9048 17.5146L24.4658 14.0479L18.2077 20.3613Z" fill="white"/>
</svg>
